Coordinates
version=1
nRows=54
nColumns=12
inDegrees=yes

Units are S.I. units (second, meters, Newtons, ...)
Angles are in degrees

endheader
time	SC_y	SC_z	SC_x	AC_y	AC_z	AC_x	GH_y	GH_z	GH_yy	EL_x	PS_y
       0.0              -29.32           28.8          10.63          65.66           3.88         -7.472         -128.6          47.32         -135.8          74.17          147.2
   0.02724              -29.33           28.8          10.64          65.66          3.876         -7.471         -128.5          47.31         -135.8          74.17          147.2
   0.05448              -29.33           28.8          10.65          65.66          3.873         -7.469         -128.5           47.3         -135.8          74.18          147.1
   0.08172              -29.33          28.79          10.65          65.65          3.869         -7.467         -128.4          47.29         -135.8          74.19          147.1
     0.109              -29.34          28.79          10.66          65.65          3.865         -7.466         -128.4          47.28         -135.8           74.2          147.1
    0.1362              -29.34          28.79          10.67          65.64           3.86         -7.464         -128.3          47.27         -135.8          74.21          147.1
    0.1634              -29.35          28.78          10.67          65.64          3.855         -7.462         -128.3          47.26         -135.8          74.22          147.1
    0.1907              -29.35          28.78          10.68          65.63           3.85          -7.46         -128.2          47.25         -135.8          74.23          147.1
    0.2179              -29.36          28.77          10.69          65.62          3.845         -7.458         -128.2          47.23         -135.8          74.24          147.1
    0.2452              -29.37          28.77           10.7          65.62          3.839         -7.456         -128.1          47.22         -135.8          74.25          147.1
    0.2724              -29.37          28.76          10.71          65.61          3.833         -7.453         -128.1           47.2         -135.8          74.27          147.0
    0.2996              -29.38          28.75          10.72           65.6          3.826          -7.45         -128.0          47.18         -135.8          74.28          147.0
    0.3269              -29.39          28.75          10.73          65.59          3.819         -7.447         -127.9          47.16         -135.8           74.3          147.0
    0.3541               -29.4          28.74          10.74          65.58          3.811         -7.444         -127.8          47.14         -135.8          74.31          147.0
    0.3814              -29.41          28.73          10.76          65.57          3.803         -7.441         -127.7          47.12         -135.8          74.33          147.0
    0.4086              -29.42          28.73          10.77          65.56          3.793         -7.437         -127.7          47.09         -135.8          74.35          146.9
    0.4358              -29.43          28.72          10.79          65.55          3.783         -7.433         -127.5          47.07         -135.8          74.37          146.9
    0.4631              -29.44          28.71          10.81          65.53          3.772         -7.429         -127.4          47.04         -135.8          74.39          146.9
    0.4903              -29.45           28.7          10.83          65.52          3.761         -7.424         -127.3          47.01         -135.8          74.42          146.9
    0.5175              -29.47          28.68          10.85           65.5          3.748         -7.419         -127.2          46.97         -135.8          74.45          146.8
    0.5448              -29.48          28.67          10.87          65.49          3.733         -7.413         -127.0          46.94         -135.8          74.48          146.8
     0.572               -29.5          28.66          10.89          65.47          3.717         -7.407         -126.9          46.89         -135.8          74.51          146.7
    0.5993              -29.52          28.64          10.92          65.45            3.7           -7.4         -126.7          46.85         -135.8          74.55          146.7
    0.6265              -29.54          28.62          10.95          65.42          3.681         -7.392         -126.5           46.8         -135.8          74.59          146.6
    0.6537              -29.56           28.6          10.99           65.4          3.659         -7.384         -126.3          46.74         -135.7          74.63          146.6
     0.681              -29.59          28.58          11.03          65.37          3.636         -7.374         -126.0          46.68         -135.7          74.69          146.5
    0.7082              -29.62          28.56          11.07          65.34          3.609         -7.363         -125.7          46.61         -135.7          74.74          146.5
    0.7355              -29.65          28.53          11.12           65.3          3.579         -7.351         -125.4          46.53         -135.7          74.81          146.4
    0.7627              -29.69           28.5          11.17          65.26          3.545         -7.338         -125.1          46.44         -135.7          74.88          146.3
    0.7899              -29.73          28.46          11.23          65.21          3.506         -7.322         -124.7          46.34         -135.7          74.96          146.2
    0.8172              -29.78          28.42          11.31          65.16          3.462         -7.304         -124.2          46.22         -135.7          75.05          146.1
    0.8444              -29.83          28.38          11.39           65.1          3.411         -7.284         -123.7          46.09         -135.7          75.16          145.9
    0.8717              -29.89          28.33          11.48          65.03          3.353         -7.261         -123.1          45.93         -135.6          75.29          145.8
    0.8989              -29.97          28.26          11.59          64.94          3.285         -7.233         -122.4          45.75         -135.6          75.43          145.6
    0.9261              -30.05          28.19          11.72          64.85          3.205         -7.202         -121.5          45.54         -135.6           75.6          145.4
    0.9534              -30.16          28.11          11.87          64.73          3.112         -7.164         -120.6          45.29         -135.6           75.8          145.2
    0.9806              -30.28          28.01          12.05           64.6            3.0         -7.119         -119.4           45.0         -135.5          76.04          144.9
     1.008              -30.42          27.89          12.26          64.44          2.867         -7.066         -118.0          44.65         -135.5          76.32          144.5
     1.035               -30.6          27.74          12.52          64.24          2.706         -7.001         -116.4          44.22         -135.4          76.66          144.1
     1.062              -30.81          27.56          12.84           64.0          2.508         -6.922         -114.3           43.7         -135.4          77.08          143.6
      1.09              -31.07          27.34          13.23          63.71          2.265         -6.825         -111.8          43.06         -135.3           77.6          142.9
     1.117               -31.4          27.06          13.72          63.34          1.962         -6.703         -108.6          42.26         -135.2          78.24          142.1
     1.144              -31.82          26.72          14.33          62.87          1.579          -6.55         -104.7          41.25         -135.1          79.06          141.1
     1.171              -32.35          26.28          15.11          62.28          1.093         -6.355         -99.61          39.97         -134.9          80.09          139.9
     1.199              -33.02          25.71          16.11          61.53         0.4712         -6.106         -93.15          38.32         -134.7          81.41          138.2
     1.226              -33.89          24.99           17.4          60.56        -0.3271         -5.786         -84.86          36.22         -134.4          83.11          136.2
     1.253               -35.0          24.06          19.04          59.32         -1.347         -5.377         -74.27          33.52         -134.1          85.28          133.5
      1.28              -36.39           22.9           21.1          57.77         -2.629         -4.863         -60.95          30.14         -133.7           88.0          130.1
     1.307              -38.08          21.49          23.61          55.87         -4.191         -4.237         -44.73          26.01         -133.2          91.32          126.0
     1.335              -40.05          19.84          26.52          53.68         -6.002         -3.511         -25.92          21.23         -132.6          95.17          121.3
     1.362              -42.18          18.07          29.67           51.3         -7.963         -2.725         -5.549          16.05         -131.9          99.34          116.2
     1.389              -44.31          16.29          32.82          48.92         -9.924         -1.939          14.82          10.88         -131.3          103.5          111.0
     1.416              -46.27          14.65          35.73          46.72         -11.74         -1.214          33.63          6.094         -130.7          107.4          106.3
     1.444              -47.97          13.23          38.25          44.83          -13.3        -0.5875          49.85          1.969         -130.2          110.7          102.2
